<svg width="239" height="239" viewBox="0 0 239 239" fill="none" xmlns="http://www.w3.org/2000/svg">
<rect width="239" height="239" rx="46" fill="white"/>
<mask id="path-2-inside-1_1_123" fill="white">
<path d="M136.941 150.38C144.114 149.683 151.025 148.556 157.675 147C164.325 145.443 170.042 143.417 174.825 140.921C179.608 138.425 182 135.373 182 131.766V144.051C182 147.655 179.608 150.706 174.825 153.206C170.042 155.706 164.325 157.732 157.675 159.285C151.025 160.838 144.114 161.964 136.941 162.666C129.768 163.367 123.788 163.714 119 163.707C114.212 163.701 108.234 163.352 101.066 162.661C93.898 161.969 86.9843 160.844 80.325 159.285C73.6657 157.725 67.949 155.699 63.175 153.206C58.401 150.713 56.0093 147.661 56 144.051V131.766C56 135.37 58.3917 138.421 63.175 140.921C67.9583 143.42 73.675 145.447 80.325 147C86.975 148.552 93.8887 149.679 101.066 150.38C108.243 151.081 114.221 151.429 119 151.422C123.779 151.416 129.759 151.067 136.941 150.375M136.941 169.434C144.114 168.74 151.025 167.614 157.675 166.058C164.325 164.502 170.042 162.476 174.825 159.979C179.608 157.483 182 154.431 182 150.825V163.11C182 166.713 179.608 169.765 174.825 172.265C170.042 174.764 164.325 176.79 157.675 178.343C151.025 179.896 144.114 181.023 136.941 181.724C129.768 182.425 123.788 182.772 119 182.766C114.212 182.759 108.234 182.41 101.066 181.719C93.898 181.028 86.9843 179.903 80.325 178.343C73.6657 176.784 67.949 174.758 63.175 172.265C58.401 169.772 56.0093 166.72 56 163.11V150.825C56 154.428 58.3917 157.48 63.175 159.979C67.9583 162.479 73.675 164.505 80.325 166.058C86.975 167.611 93.8887 168.738 101.066 169.439C108.243 170.14 114.221 170.487 119 170.481C123.779 170.474 129.759 170.125 136.941 169.434Z"/>
</mask>
<path d="M136.941 150.38C144.114 149.683 151.025 148.556 157.675 147C164.325 145.443 170.042 143.417 174.825 140.921C179.608 138.425 182 135.373 182 131.766V144.051C182 147.655 179.608 150.706 174.825 153.206C170.042 155.706 164.325 157.732 157.675 159.285C151.025 160.838 144.114 161.964 136.941 162.666C129.768 163.367 123.788 163.714 119 163.707C114.212 163.701 108.234 163.352 101.066 162.661C93.898 161.969 86.9843 160.844 80.325 159.285C73.6657 157.725 67.949 155.699 63.175 153.206C58.401 150.713 56.0093 147.661 56 144.051V131.766C56 135.37 58.3917 138.421 63.175 140.921C67.9583 143.42 73.675 145.447 80.325 147C86.975 148.552 93.8887 149.679 101.066 150.38C108.243 151.081 114.221 151.429 119 151.422C123.779 151.416 129.759 151.067 136.941 150.375M136.941 169.434C144.114 168.74 151.025 167.614 157.675 166.058C164.325 164.502 170.042 162.476 174.825 159.979C179.608 157.483 182 154.431 182 150.825V163.11C182 166.713 179.608 169.765 174.825 172.265C170.042 174.764 164.325 176.79 157.675 178.343C151.025 179.896 144.114 181.023 136.941 181.724C129.768 182.425 123.788 182.772 119 182.766C114.212 182.759 108.234 182.41 101.066 181.719C93.898 181.028 86.9843 179.903 80.325 178.343C73.6657 176.784 67.949 174.758 63.175 172.265C58.401 169.772 56.0093 166.72 56 163.11V150.825C56 154.428 58.3917 157.48 63.175 159.979C67.9583 162.479 73.675 164.505 80.325 166.058C86.975 167.611 93.8887 168.738 101.066 169.439C108.243 170.14 114.221 170.487 119 170.481C123.779 170.474 129.759 170.125 136.941 169.434Z" fill="#7AA5FD"/>
<path d="M56 144.051H55L55 144.054L56 144.051ZM136.941 169.434L137.037 170.429L137.037 170.429L136.941 169.434ZM56 163.11H55L55 163.112L56 163.11ZM136.941 150.38L137.038 151.376C144.252 150.674 151.207 149.54 157.903 147.973L157.675 147L157.447 146.026C150.843 147.571 143.975 148.691 136.844 149.385L136.941 150.38ZM157.675 147L157.903 147.973C164.614 146.403 170.413 144.351 175.288 141.807L174.825 140.921L174.362 140.034C169.67 142.483 164.036 144.484 157.447 146.026L157.675 147ZM174.825 140.921L175.288 141.807C180.22 139.233 183 135.913 183 131.766H182H181C181 134.832 178.997 137.616 174.362 140.034L174.825 140.921ZM182 131.766H181V144.051H182H183V131.766H182ZM182 144.051H181C181 147.114 178.997 149.897 174.362 152.32L174.825 153.206L175.288 154.092C180.219 151.515 183 148.195 183 144.051H182ZM174.825 153.206L174.362 152.32C169.67 154.772 164.036 156.772 157.448 158.311L157.675 159.285L157.902 160.258C164.614 158.691 170.414 156.64 175.288 154.092L174.825 153.206ZM157.675 159.285L157.448 158.311C150.843 159.853 143.975 160.973 136.844 161.67L136.941 162.666L137.038 163.661C144.252 162.956 151.207 161.822 157.902 160.258L157.675 159.285ZM136.941 162.666L136.844 161.67C129.689 162.37 123.744 162.714 119.001 162.707L119 163.707L118.999 164.707C123.832 164.714 129.847 164.364 137.038 163.661L136.941 162.666ZM119 163.707L119.001 162.707C114.256 162.701 108.312 162.355 101.162 161.665L101.066 162.661L100.97 163.656C108.156 164.349 114.168 164.701 118.999 164.707L119 163.707ZM101.066 162.661L101.162 161.665C94.0361 160.978 87.1666 159.86 80.553 158.311L80.325 159.285L80.097 160.258C86.802 161.828 93.7599 162.961 100.97 163.656L101.066 162.661ZM80.325 159.285L80.553 158.311C73.9545 156.766 68.3207 154.765 63.6379 152.32L63.175 153.206L62.7121 154.092C67.5773 156.633 73.3768 158.685 80.097 160.258L80.325 159.285ZM63.175 153.206L63.6379 152.32C59.0136 149.905 57.0079 147.121 57 144.049L56 144.051L55 144.054C55.0107 148.202 57.7884 151.521 62.7121 154.092L63.175 153.206ZM56 144.051H57V131.766H56H55V144.051H56ZM56 131.766H55C55 135.91 57.7805 139.23 62.7119 141.807L63.175 140.921L63.6381 140.035C59.0028 137.612 57 134.829 57 131.766H56ZM63.175 140.921L62.7119 141.807C67.5864 144.354 73.3862 146.406 80.0976 147.973L80.325 147L80.5524 146.026C73.9638 144.487 68.3302 142.487 63.6381 140.035L63.175 140.921ZM80.325 147L80.0976 147.973C86.7928 149.537 93.7501 150.671 100.969 151.376L101.066 150.38L101.163 149.385C94.0273 148.688 87.1572 147.568 80.5524 146.026L80.325 147ZM101.066 150.38L100.969 151.376C108.164 152.079 114.178 152.429 119.001 152.422L119 151.422L118.999 150.422C114.265 150.429 108.322 150.084 101.163 149.385L101.066 150.38ZM119 151.422L119.001 152.422C123.823 152.416 129.837 152.064 137.037 151.371L136.941 150.375L136.845 149.38C129.681 150.07 123.734 150.416 118.999 150.422L119 151.422ZM136.941 169.434L137.037 170.429C144.252 169.731 151.207 168.599 157.903 167.032L157.675 166.058L157.447 165.084C150.843 166.63 143.975 167.748 136.845 168.439L136.941 169.434ZM157.675 166.058L157.903 167.032C164.614 165.461 170.413 163.41 175.288 160.866L174.825 159.979L174.362 159.093C169.67 161.542 164.036 163.543 157.447 165.084L157.675 166.058ZM174.825 159.979L175.288 160.866C180.22 158.292 183 154.972 183 150.825H182H181C181 153.891 178.997 156.674 174.362 159.093L174.825 159.979ZM182 150.825H181V163.11H182H183V150.825H182ZM182 163.11H181C181 166.173 178.997 168.956 174.362 171.378L174.825 172.265L175.288 173.151C180.219 170.574 183 167.254 183 163.11H182ZM174.825 172.265L174.362 171.378C169.67 173.83 164.036 175.831 157.448 177.369L157.675 178.343L157.902 179.317C164.614 177.75 170.414 175.698 175.288 173.151L174.825 172.265ZM157.675 178.343L157.448 177.369C150.843 178.912 143.975 180.032 136.844 180.729L136.941 181.724L137.038 182.719C144.252 182.014 151.207 180.88 157.902 179.317L157.675 178.343ZM136.941 181.724L136.844 180.729C129.689 181.428 123.744 181.772 119.001 181.766L119 182.766L118.999 183.766C123.832 183.773 129.847 183.422 137.038 182.719L136.941 181.724ZM119 182.766L119.001 181.766C114.256 181.759 108.312 181.413 101.162 180.724L101.066 181.719L100.97 182.715C108.156 183.408 114.168 183.759 118.999 183.766L119 182.766ZM101.066 181.719L101.162 180.724C94.0361 180.037 87.1666 178.918 80.553 177.37L80.325 178.343L80.097 179.317C86.802 180.887 93.7599 182.019 100.97 182.715L101.066 181.719ZM80.325 178.343L80.553 177.37C73.9545 175.824 68.3207 173.824 63.6379 171.378L63.175 172.265L62.7121 173.151C67.5773 175.692 73.3768 177.743 80.097 179.317L80.325 178.343ZM63.175 172.265L63.6379 171.378C59.0136 168.963 57.0079 166.179 57 163.107L56 163.11L55 163.112C55.0107 167.26 57.7884 170.58 62.7121 173.151L63.175 172.265ZM56 163.11H57V150.825H56H55V163.11H56ZM56 150.825H55C55 154.969 57.7805 158.289 62.7119 160.866L63.175 159.979L63.6381 159.093C59.0028 156.671 57 153.888 57 150.825H56ZM63.175 159.979L62.7119 160.866C67.5864 163.413 73.3862 165.465 80.0976 167.032L80.325 166.058L80.5524 165.084C73.9638 163.546 68.3302 161.545 63.6381 159.093L63.175 159.979ZM80.325 166.058L80.0976 167.032C86.7928 168.595 93.7501 169.729 100.969 170.434L101.066 169.439L101.163 168.444C94.0273 167.747 87.1572 166.627 80.5524 165.084L80.325 166.058ZM101.066 169.439L100.969 170.434C108.164 171.137 114.178 171.487 119.001 171.481L119 170.481L118.999 169.481C114.265 169.487 108.322 169.143 101.163 168.444L101.066 169.439ZM119 170.481L119.001 171.481C123.823 171.474 129.837 171.122 137.037 170.429L136.941 169.434L136.845 168.439C129.681 169.128 123.734 169.474 118.999 169.481L119 170.481Z" fill="#7AA5FD" mask="url(#path-2-inside-1_1_123)"/>
<rect x="104.068" y="136.059" width="35.6625" height="39.2831" rx="7" transform="rotate(-44.6413 104.068 136.059)" fill="white"/>
<mask id="path-5-inside-2_1_123" fill="white">
<path d="M139.073 54C162.781 54 182 73.219 182 96.9268C182 117.691 167.257 135.01 147.668 138.991L139.593 147.843C135.126 152.738 127.999 152.636 123.675 147.613L116.994 139.854H93.9268C70.2191 139.854 51.0001 120.634 51 96.9268C51 73.219 70.219 54 93.9268 54H139.073Z"/>
</mask>
<path d="M139.073 54C162.781 54 182 73.219 182 96.9268C182 117.691 167.257 135.01 147.668 138.991L139.593 147.843C135.126 152.738 127.999 152.636 123.675 147.613L116.994 139.854H93.9268C70.2191 139.854 51.0001 120.634 51 96.9268C51 73.219 70.219 54 93.9268 54H139.073Z" fill="white"/>
<path d="M182 96.9268L190 96.9268V96.9268H182ZM147.668 138.991L146.075 131.151L143.517 131.671L141.758 133.599L147.668 138.991ZM139.593 147.843L145.502 153.235L145.503 153.234L139.593 147.843ZM123.675 147.613L117.612 152.833L117.612 152.833L123.675 147.613ZM116.994 139.854L123.057 134.634L120.663 131.854H116.994V139.854ZM51 96.9268H43V96.9268L51 96.9268ZM139.073 54V62C158.363 62 174 77.6373 174 96.9268H182H190C190 68.8007 167.199 46 139.073 46V54ZM182 96.9268L174 96.9267C174 113.811 162.01 127.913 146.075 131.151L147.668 138.991L149.261 146.831C172.504 142.107 190 121.57 190 96.9268L182 96.9268ZM147.668 138.991L141.758 133.599L133.683 142.451L139.593 147.843L145.503 153.234L153.578 144.383L147.668 138.991ZM139.593 147.843L133.683 142.45C132.943 143.262 132.214 143.456 131.695 143.448C131.177 143.441 130.454 143.226 129.737 142.394L123.675 147.613L117.612 152.833C125.068 161.492 137.801 161.676 145.502 153.235L139.593 147.843ZM123.675 147.613L129.737 142.394L123.057 134.634L116.994 139.854L110.931 145.073L117.612 152.833L123.675 147.613ZM116.994 139.854V131.854H93.9268V139.854V147.854H116.994V139.854ZM93.9268 139.854V131.854C74.6374 131.854 59.0001 116.216 59 96.9267L51 96.9268L43 96.9268C43.0001 125.053 65.8008 147.854 93.9268 147.854V139.854ZM51 96.9268H59C59 77.6373 74.6373 62 93.9268 62V54V46C65.8007 46 43 68.8007 43 96.9268H51ZM93.9268 54V62H139.073V54V46H93.9268V54Z" fill="#1A60FD" mask="url(#path-5-inside-2_1_123)"/>
<path d="M85 91.8964L85 103.296" stroke="#1A60FD" stroke-width="8" stroke-linecap="round"/>
<path d="M149 91.8964L149 103.296" stroke="#1A60FD" stroke-width="8" stroke-linecap="round"/>
<path d="M101 81.729L101 111.653" stroke="#1A60FD" stroke-width="8" stroke-linecap="round"/>
<path d="M133 81.729L133 111.653" stroke="#1A60FD" stroke-width="8" stroke-linecap="round"/>
<path d="M117 73.4103L117 120.434" stroke="#1A60FD" stroke-width="8" stroke-linecap="round"/>
</svg>
