<svg width="553" height="142" viewBox="0 0 553 142" fill="none" xmlns="http://www.w3.org/2000/svg">
<mask id="path-1-inside-1_1_120" fill="white">
<path d="M85.941 96.3804C93.1137 95.6826 100.025 94.5557 106.675 92.9995C113.325 91.4434 119.042 89.4172 123.825 86.9209C128.608 84.4245 131 81.3729 131 77.766V90.0511C131 93.6548 128.608 96.7064 123.825 99.206C119.042 101.706 113.325 103.732 106.675 105.285C100.025 106.838 93.1137 107.964 85.941 108.666C78.7683 109.367 72.788 109.714 68 109.707C63.212 109.701 57.234 109.352 50.066 108.661C42.898 107.969 35.9843 106.844 29.325 105.285C22.6657 103.725 16.949 101.699 12.175 99.206C7.401 96.7129 5.00933 93.6613 5 90.0511V77.766C5 81.3696 7.39167 84.4213 12.175 86.9209C16.9583 89.4205 22.675 91.4467 29.325 92.9995C35.975 94.5524 42.8887 95.6793 50.066 96.3804C57.2433 97.0815 63.2213 97.4287 68 97.4222C72.7787 97.4156 78.759 97.0667 85.941 96.3755M85.941 115.434C93.1137 114.74 100.025 113.614 106.675 112.058C113.325 110.502 119.042 108.476 123.825 105.979C128.608 103.483 131 100.431 131 96.8246V109.11C131 112.713 128.608 115.765 123.825 118.265C119.042 120.764 113.325 122.79 106.675 124.343C100.025 125.896 93.1137 127.023 85.941 127.724C78.7683 128.425 72.788 128.772 68 128.766C63.212 128.759 57.234 128.41 50.066 127.719C42.898 127.028 35.9843 125.903 29.325 124.343C22.6657 122.784 16.949 120.758 12.175 118.265C7.401 115.772 5.00933 112.72 5 109.11V96.8246C5 100.428 7.39167 103.48 12.175 105.979C16.9583 108.479 22.675 110.505 29.325 112.058C35.975 113.611 42.8887 114.738 50.066 115.439C57.2433 116.14 63.2213 116.487 68 116.481C72.7787 116.474 78.759 116.125 85.941 115.434Z"/>
</mask>
<path d="M85.941 96.3804C93.1137 95.6826 100.025 94.5557 106.675 92.9995C113.325 91.4434 119.042 89.4172 123.825 86.9209C128.608 84.4245 131 81.3729 131 77.766V90.0511C131 93.6548 128.608 96.7064 123.825 99.206C119.042 101.706 113.325 103.732 106.675 105.285C100.025 106.838 93.1137 107.964 85.941 108.666C78.7683 109.367 72.788 109.714 68 109.707C63.212 109.701 57.234 109.352 50.066 108.661C42.898 107.969 35.9843 106.844 29.325 105.285C22.6657 103.725 16.949 101.699 12.175 99.206C7.401 96.7129 5.00933 93.6613 5 90.0511V77.766C5 81.3696 7.39167 84.4213 12.175 86.9209C16.9583 89.4205 22.675 91.4467 29.325 92.9995C35.975 94.5524 42.8887 95.6793 50.066 96.3804C57.2433 97.0815 63.2213 97.4287 68 97.4222C72.7787 97.4156 78.759 97.0667 85.941 96.3755M85.941 115.434C93.1137 114.74 100.025 113.614 106.675 112.058C113.325 110.502 119.042 108.476 123.825 105.979C128.608 103.483 131 100.431 131 96.8246V109.11C131 112.713 128.608 115.765 123.825 118.265C119.042 120.764 113.325 122.79 106.675 124.343C100.025 125.896 93.1137 127.023 85.941 127.724C78.7683 128.425 72.788 128.772 68 128.766C63.212 128.759 57.234 128.41 50.066 127.719C42.898 127.028 35.9843 125.903 29.325 124.343C22.6657 122.784 16.949 120.758 12.175 118.265C7.401 115.772 5.00933 112.72 5 109.11V96.8246C5 100.428 7.39167 103.48 12.175 105.979C16.9583 108.479 22.675 110.505 29.325 112.058C35.975 113.611 42.8887 114.738 50.066 115.439C57.2433 116.14 63.2213 116.487 68 116.481C72.7787 116.474 78.759 116.125 85.941 115.434Z" fill="#1A60FD"/>
<path d="M5 90.0511H4L4 90.0537L5 90.0511ZM85.941 115.434L86.0368 116.429L86.0374 116.429L85.941 115.434ZM5 109.11H4L4 109.112L5 109.11ZM85.941 96.3804L86.0378 97.3757C93.2522 96.6739 100.207 95.54 106.903 93.9732L106.675 92.9995L106.447 92.0258C99.8426 93.5713 92.9751 94.6914 85.8442 95.3851L85.941 96.3804ZM106.675 92.9995L106.903 93.9732C113.614 92.4028 119.413 90.3512 124.288 87.8074L123.825 86.9209L123.362 86.0343C118.67 88.4832 113.036 90.484 106.447 92.0258L106.675 92.9995ZM123.825 86.9209L124.288 87.8074C129.22 85.2335 132 81.9134 132 77.766H131H130C130 80.8324 127.997 83.6156 123.362 86.0343L123.825 86.9209ZM131 77.766H130V90.0511H131H132V77.766H131ZM131 90.0511H130C130 93.1142 127.997 95.8974 123.362 98.3197L123.825 99.206L124.288 100.092C129.219 97.5153 132 94.1953 132 90.0511H131ZM123.825 99.206L123.362 98.3197C118.67 100.772 113.036 102.772 106.448 104.311L106.675 105.285L106.902 106.258C113.614 104.691 119.414 102.64 124.288 100.092L123.825 99.206ZM106.675 105.285L106.448 104.311C99.8427 105.853 92.975 106.973 85.8437 107.67L85.941 108.666L86.0383 109.661C93.2523 108.956 100.207 107.822 106.902 106.258L106.675 105.285ZM85.941 108.666L85.8437 107.67C78.6893 108.37 72.7445 108.714 68.0014 108.707L68 109.707L67.9986 110.707C72.8315 110.714 78.8474 110.364 86.0383 109.661L85.941 108.666ZM68 109.707L68.0014 108.707C63.2564 108.701 57.3125 108.355 50.162 107.665L50.066 108.661L49.97 109.656C57.1555 110.349 63.1676 110.701 67.9986 110.707L68 109.707ZM50.066 108.661L50.162 107.665C43.0361 106.978 36.1666 105.86 29.553 104.311L29.325 105.285L29.097 106.258C35.802 107.828 42.7599 108.961 49.97 109.656L50.066 108.661ZM29.325 105.285L29.553 104.311C22.9545 102.766 17.3207 100.765 12.6379 98.3196L12.175 99.206L11.7121 100.092C16.5773 102.633 22.3768 104.685 29.097 106.258L29.325 105.285ZM12.175 99.206L12.6379 98.3196C8.01363 95.9047 6.00794 93.1209 6 90.0485L5 90.0511L4 90.0537C4.01073 94.2017 6.78837 97.5211 11.7121 100.092L12.175 99.206ZM5 90.0511H6V77.766H5H4V90.0511H5ZM5 77.766H4C4 81.9102 6.78052 85.2302 11.7119 87.8071L12.175 86.9209L12.6381 86.0346C8.00282 83.6123 6 80.829 6 77.766H5ZM12.175 86.9209L11.7119 87.8071C16.5864 90.3544 22.3862 92.4062 29.0976 93.9733L29.325 92.9995L29.5524 92.0257C22.9638 90.4872 17.3302 88.4865 12.6381 86.0346L12.175 86.9209ZM29.325 92.9995L29.0976 93.9733C35.7928 95.5367 42.7501 96.6706 49.9688 97.3757L50.066 96.3804L50.1632 95.3851C43.0273 94.6881 36.1572 93.568 29.5524 92.0257L29.325 92.9995ZM50.066 96.3804L49.9688 97.3757C57.1642 98.0785 63.1778 98.4288 68.0014 98.4222L68 97.4222L67.9986 96.4222C63.2649 96.4287 57.3225 96.0844 50.1632 95.3851L50.066 96.3804ZM68 97.4222L68.0014 98.4222C72.8231 98.4156 78.8375 98.0638 86.0368 97.3709L85.941 96.3755L85.8452 95.3801C78.6805 96.0697 72.7342 96.4157 67.9986 96.4222L68 97.4222ZM85.941 115.434L86.0374 116.429C93.2519 115.731 100.207 114.599 106.903 113.032L106.675 112.058L106.447 111.084C99.8427 112.63 92.9754 113.748 85.8446 114.439L85.941 115.434ZM106.675 112.058L106.903 113.032C113.614 111.461 119.413 109.41 124.288 106.866L123.825 105.979L123.362 105.093C118.67 107.542 113.036 109.543 106.447 111.084L106.675 112.058ZM123.825 105.979L124.288 106.866C129.22 104.292 132 100.972 132 96.8246H131H130C130 99.891 127.997 102.674 123.362 105.093L123.825 105.979ZM131 96.8246H130V109.11H131H132V96.8246H131ZM131 109.11H130C130 112.173 127.997 114.956 123.362 117.378L123.825 118.265L124.288 119.151C129.219 116.574 132 113.254 132 109.11H131ZM123.825 118.265L123.362 117.378C118.67 119.83 113.036 121.831 106.448 123.369L106.675 124.343L106.902 125.317C113.614 123.75 119.414 121.698 124.288 119.151L123.825 118.265ZM106.675 124.343L106.448 123.369C99.8427 124.912 92.975 126.032 85.8437 126.729L85.941 127.724L86.0383 128.719C93.2523 128.014 100.207 126.88 106.902 125.317L106.675 124.343ZM85.941 127.724L85.8437 126.729C78.6892 127.428 72.7445 127.772 68.0014 127.766L68 128.766L67.9986 129.766C72.8315 129.773 78.8474 129.422 86.0383 128.719L85.941 127.724ZM68 128.766L68.0014 127.766C63.2564 127.759 57.3125 127.413 50.162 126.724L50.066 127.719L49.97 128.715C57.1555 129.408 63.1676 129.759 67.9986 129.766L68 128.766ZM50.066 127.719L50.162 126.724C43.0361 126.037 36.1666 124.918 29.553 123.37L29.325 124.343L29.097 125.317C35.802 126.887 42.7599 128.019 49.97 128.715L50.066 127.719ZM29.325 124.343L29.553 123.37C22.9545 121.824 17.3207 119.824 12.6379 117.378L12.175 118.265L11.7121 119.151C16.5773 121.692 22.3768 123.743 29.097 125.317L29.325 124.343ZM12.175 118.265L12.6379 117.378C8.01363 114.963 6.00794 112.179 6 109.107L5 109.11L4 109.112C4.01073 113.26 6.78837 116.58 11.7121 119.151L12.175 118.265ZM5 109.11H6V96.8246H5H4V109.11H5ZM5 96.8246H4C4 100.969 6.78052 104.289 11.7119 106.866L12.175 105.979L12.6381 105.093C8.00282 102.671 6 99.8876 6 96.8246H5ZM12.175 105.979L11.7119 106.866C16.5864 109.413 22.3862 111.465 29.0976 113.032L29.325 112.058L29.5524 111.084C22.9638 109.546 17.3302 107.545 12.6381 105.093L12.175 105.979ZM29.325 112.058L29.0976 113.032C35.7928 114.595 42.7501 115.729 49.9688 116.434L50.066 115.439L50.1632 114.444C43.0273 113.747 36.1572 112.627 29.5524 111.084L29.325 112.058ZM50.066 115.439L49.9688 116.434C57.1642 117.137 63.1778 117.487 68.0014 117.481L68 116.481L67.9986 115.481C63.2649 115.487 57.3225 115.143 50.1632 114.444L50.066 115.439ZM68 116.481L68.0014 117.481C72.8231 117.474 78.8375 117.122 86.0368 116.429L85.941 115.434L85.8452 114.439C78.6805 115.128 72.7342 115.474 67.9986 115.481L68 116.481Z" fill="#1A60FD" mask="url(#path-1-inside-1_1_120)"/>
<rect x="53.0685" y="82.0588" width="35.6625" height="39.2831" rx="7" transform="rotate(-44.6413 53.0685 82.0588)" fill="white"/>
<mask id="path-4-inside-2_1_120" fill="white">
<path d="M88.0732 0C111.781 0 131 19.219 131 42.9268C131 63.6908 116.257 81.0102 96.668 84.9912L88.5928 93.8428C84.1257 98.7384 76.9989 98.6356 72.6748 93.6133L65.9941 85.8535H42.9268C19.2191 85.8535 0.000106111 66.6344 0 42.9268C0 19.219 19.219 0 42.9268 0H88.0732Z"/>
</mask>
<path d="M88.0732 0C111.781 0 131 19.219 131 42.9268C131 63.6908 116.257 81.0102 96.668 84.9912L88.5928 93.8428C84.1257 98.7384 76.9989 98.6356 72.6748 93.6133L65.9941 85.8535H42.9268C19.2191 85.8535 0.000106111 66.6344 0 42.9268C0 19.219 19.219 0 42.9268 0H88.0732Z" fill="white"/>
<path d="M131 42.9268L139 42.9268V42.9268H131ZM96.668 84.9912L95.0747 77.1515L92.5169 77.6713L90.7579 79.5995L96.668 84.9912ZM88.5928 93.8428L94.5023 99.2351L94.5029 99.2345L88.5928 93.8428ZM72.6748 93.6133L66.6121 98.8329L66.6123 98.833L72.6748 93.6133ZM65.9941 85.8535L72.0568 80.6339L69.663 77.8535H65.9941V85.8535ZM0 42.9268H-8V42.9268L0 42.9268ZM88.0732 0V8C107.363 8 123 23.6373 123 42.9268H131H139C139 14.8007 116.199 -8 88.0732 -8V0ZM131 42.9268L123 42.9267C123 59.8114 111.01 73.9129 95.0747 77.1515L96.668 84.9912L98.2612 92.8309C121.504 88.1074 139 67.5703 139 42.9268L131 42.9268ZM96.668 84.9912L90.7579 79.5995L82.6827 88.451L88.5928 93.8428L94.5029 99.2345L102.578 90.3829L96.668 84.9912ZM88.5928 93.8428L82.6832 88.4504C81.9426 89.2621 81.2143 89.4556 80.6955 89.4481C80.1767 89.4406 79.4542 89.2262 78.7373 88.3935L72.6748 93.6133L66.6123 98.833C74.0675 107.492 86.8005 107.676 94.5023 99.2351L88.5928 93.8428ZM72.6748 93.6133L78.7375 88.3937L72.0568 80.6339L65.9941 85.8535L59.9315 91.0731L66.6121 98.8329L72.6748 93.6133ZM65.9941 85.8535V77.8535H42.9268V85.8535V93.8535H65.9941V85.8535ZM42.9268 85.8535V77.8535C23.6374 77.8535 8.00009 62.2162 8 42.9267L0 42.9268L-8 42.9268C-7.99987 71.0527 14.8008 93.8535 42.9268 93.8535V85.8535ZM0 42.9268H8C8 23.6373 23.6373 8 42.9268 8V0V-8C14.8007 -8 -8 14.8007 -8 42.9268H0ZM42.9268 0V8H88.0732V0V-8H42.9268V0Z" fill="#1A60FD" mask="url(#path-4-inside-2_1_120)"/>
<path d="M34 37.8964L34 49.2961" stroke="#1A60FD" stroke-width="8" stroke-linecap="round"/>
<path d="M98 37.8964L98 49.2961" stroke="#1A60FD" stroke-width="8" stroke-linecap="round"/>
<path d="M50 27.729L50 57.6533" stroke="#1A60FD" stroke-width="8" stroke-linecap="round"/>
<path d="M82 27.729L82 57.6533" stroke="#1A60FD" stroke-width="8" stroke-linecap="round"/>
<path d="M66 19.4103L66 66.4342" stroke="#1A60FD" stroke-width="8" stroke-linecap="round"/>
<path d="M197.745 34.3281V104H185.83V34.3281H197.745ZM219.613 34.3281V43.8984H164.153V34.3281H219.613ZM245.625 93.6162V68.9248C245.625 67.0745 245.29 65.4795 244.621 64.1396C243.951 62.7998 242.93 61.763 241.558 61.0293C240.218 60.2956 238.527 59.9287 236.486 59.9287C234.604 59.9287 232.977 60.2477 231.605 60.8857C230.233 61.5238 229.164 62.3851 228.399 63.4697C227.633 64.5544 227.25 65.7826 227.25 67.1543H215.766C215.766 65.1126 216.26 63.1348 217.249 61.2207C218.238 59.3066 219.674 57.5999 221.556 56.1006C223.438 54.6012 225.687 53.4209 228.303 52.5596C230.919 51.6982 233.854 51.2676 237.108 51.2676C241 51.2676 244.445 51.9215 247.444 53.2295C250.474 54.5374 252.851 56.5153 254.574 59.1631C256.328 61.779 257.205 65.0648 257.205 69.0205V92.0371C257.205 94.3978 257.365 96.5192 257.684 98.4014C258.035 100.252 258.529 101.863 259.167 103.234V104H247.348C246.806 102.756 246.375 101.177 246.056 99.2627C245.769 97.3167 245.625 95.4346 245.625 93.6162ZM247.3 72.5137L247.396 79.6436H239.118C236.98 79.6436 235.098 79.8509 233.471 80.2656C231.844 80.6484 230.488 81.2227 229.404 81.9883C228.319 82.7539 227.506 83.679 226.963 84.7637C226.421 85.8483 226.15 87.0765 226.15 88.4482C226.15 89.82 226.469 91.0801 227.107 92.2285C227.745 93.3451 228.67 94.2223 229.882 94.8604C231.126 95.4984 232.626 95.8174 234.38 95.8174C236.741 95.8174 238.799 95.3389 240.553 94.3818C242.34 93.3929 243.743 92.1966 244.764 90.793C245.785 89.3574 246.327 88.0016 246.391 86.7256L250.123 91.8457C249.741 93.1536 249.087 94.5573 248.162 96.0566C247.236 97.556 246.024 98.9915 244.525 100.363C243.057 101.703 241.287 102.804 239.213 103.665C237.172 104.526 234.811 104.957 232.131 104.957C228.75 104.957 225.735 104.287 223.087 102.947C220.44 101.576 218.366 99.7412 216.867 97.4443C215.367 95.1156 214.618 92.4837 214.618 89.5488C214.618 86.8053 215.128 84.3809 216.149 82.2754C217.202 80.138 218.733 78.3516 220.743 76.916C222.784 75.4805 225.273 74.3958 228.207 73.6621C231.142 72.8965 234.492 72.5137 238.256 72.5137H247.3ZM276.71 30.5V104H265.13V30.5H276.71ZM296.071 30.5V104H284.49V30.5H296.071ZM328.227 52.2246L305.689 77.2031L293.343 89.8359L290.328 80.0742L299.659 68.542L314.302 52.2246H328.227ZM316.79 104L299.994 79.6914L307.268 71.6045L330.141 104H316.79Z" fill="#4A4A4A"/>
<path d="M357.923 72.5137H340.171L340.075 63.7568H355.579C358.195 63.7568 360.412 63.374 362.23 62.6084C364.08 61.8109 365.484 60.6784 366.441 59.2109C367.398 57.7116 367.877 55.9092 367.877 53.8037C367.877 51.4749 367.43 49.5768 366.537 48.1094C365.643 46.6419 364.272 45.5732 362.421 44.9033C360.603 44.2334 358.274 43.8984 355.435 43.8984H343.807V104H331.796V34.3281H355.435C359.263 34.3281 362.677 34.695 365.675 35.4287C368.706 36.1624 371.274 37.3109 373.379 38.874C375.517 40.4053 377.128 42.3512 378.212 44.7119C379.329 47.0726 379.887 49.8799 379.887 53.1338C379.887 56.0049 379.201 58.6367 377.83 61.0293C376.458 63.39 374.432 65.32 371.753 66.8193C369.073 68.3187 365.739 69.2119 361.752 69.499L357.923 72.5137ZM357.397 104H336.39L341.797 94.4775H357.397C360.109 94.4775 362.374 94.0309 364.192 93.1377C366.01 92.2126 367.366 90.9525 368.259 89.3574C369.184 87.7305 369.647 85.8324 369.647 83.6631C369.647 81.3981 369.248 79.4362 368.451 77.7773C367.653 76.0866 366.393 74.7946 364.671 73.9014C362.948 72.9762 360.699 72.5137 357.923 72.5137H344.429L344.525 63.7568H362.087L364.814 67.0586C368.642 67.1862 371.784 68.0316 374.241 69.5947C376.729 71.1579 378.579 73.1836 379.792 75.6719C381.004 78.1602 381.61 80.8398 381.61 83.7109C381.61 88.1452 380.637 91.8617 378.691 94.8604C376.777 97.859 374.018 100.14 370.413 101.703C366.808 103.234 362.469 104 357.397 104ZM416.857 93.6162V68.9248C416.857 67.0745 416.522 65.4795 415.853 64.1396C415.183 62.7998 414.162 61.763 412.79 61.0293C411.45 60.2956 409.759 59.9287 407.718 59.9287C405.836 59.9287 404.209 60.2477 402.837 60.8857C401.465 61.5238 400.396 62.3851 399.631 63.4697C398.865 64.5544 398.482 65.7826 398.482 67.1543H386.998C386.998 65.1126 387.493 63.1348 388.481 61.2207C389.47 59.3066 390.906 57.5999 392.788 56.1006C394.67 54.6012 396.919 53.4209 399.535 52.5596C402.151 51.6982 405.086 51.2676 408.34 51.2676C412.232 51.2676 415.677 51.9215 418.676 53.2295C421.706 54.5374 424.083 56.5153 425.806 59.1631C427.56 61.779 428.438 65.0648 428.438 69.0205V92.0371C428.438 94.3978 428.597 96.5192 428.916 98.4014C429.267 100.252 429.761 101.863 430.399 103.234V104H418.58C418.038 102.756 417.607 101.177 417.288 99.2627C417.001 97.3167 416.857 95.4346 416.857 93.6162ZM418.532 72.5137L418.628 79.6436H410.35C408.212 79.6436 406.33 79.8509 404.703 80.2656C403.076 80.6484 401.72 81.2227 400.636 81.9883C399.551 82.7539 398.738 83.679 398.195 84.7637C397.653 85.8483 397.382 87.0765 397.382 88.4482C397.382 89.82 397.701 91.0801 398.339 92.2285C398.977 93.3451 399.902 94.2223 401.114 94.8604C402.358 95.4984 403.858 95.8174 405.612 95.8174C407.973 95.8174 410.031 95.3389 411.785 94.3818C413.572 93.3929 414.975 92.1966 415.996 90.793C417.017 89.3574 417.559 88.0016 417.623 86.7256L421.355 91.8457C420.973 93.1536 420.319 94.5573 419.394 96.0566C418.468 97.556 417.256 98.9915 415.757 100.363C414.289 101.703 412.519 102.804 410.445 103.665C408.404 104.526 406.043 104.957 403.363 104.957C399.982 104.957 396.967 104.287 394.319 102.947C391.672 101.576 389.598 99.7412 388.099 97.4443C386.599 95.1156 385.85 92.4837 385.85 89.5488C385.85 86.8053 386.36 84.3809 387.381 82.2754C388.434 80.138 389.965 78.3516 391.975 76.916C394.016 75.4805 396.505 74.3958 399.439 73.6621C402.374 72.8965 405.724 72.5137 409.488 72.5137H418.532ZM464.642 89.9795C464.642 88.8311 464.355 87.7943 463.781 86.8691C463.206 85.9121 462.106 85.0508 460.479 84.2852C458.884 83.5195 456.523 82.8177 453.397 82.1797C450.653 81.5736 448.133 80.8558 445.836 80.0264C443.571 79.165 441.625 78.1283 439.998 76.916C438.371 75.7038 437.111 74.2682 436.218 72.6094C435.325 70.9505 434.878 69.0365 434.878 66.8672C434.878 64.7617 435.341 62.7679 436.266 60.8857C437.191 59.0036 438.515 57.3447 440.238 55.9092C441.96 54.4736 444.05 53.3411 446.506 52.5117C448.995 51.6823 451.77 51.2676 454.832 51.2676C459.171 51.2676 462.887 52.0013 465.982 53.4688C469.108 54.9043 471.501 56.8662 473.16 59.3545C474.818 61.8109 475.648 64.5863 475.648 67.6807H464.116C464.116 66.3089 463.765 65.0329 463.063 63.8525C462.393 62.6403 461.372 61.6673 460 60.9336C458.629 60.168 456.906 59.7852 454.832 59.7852C452.855 59.7852 451.212 60.1042 449.904 60.7422C448.628 61.3483 447.671 62.1458 447.033 63.1348C446.427 64.1237 446.123 65.2083 446.123 66.3887C446.123 67.25 446.283 68.0316 446.602 68.7334C446.953 69.4033 447.527 70.0254 448.325 70.5996C449.122 71.1419 450.207 71.6523 451.579 72.1309C452.982 72.6094 454.737 73.0719 456.842 73.5186C460.798 74.348 464.195 75.4167 467.035 76.7246C469.906 78.0007 472.107 79.6595 473.638 81.7012C475.169 83.7109 475.935 86.263 475.935 89.3574C475.935 91.6543 475.441 93.7598 474.452 95.6738C473.495 97.556 472.091 99.1989 470.241 100.603C468.39 101.974 466.173 103.043 463.589 103.809C461.037 104.574 458.166 104.957 454.976 104.957C450.287 104.957 446.315 104.128 443.061 102.469C439.807 100.778 437.335 98.6247 435.644 96.0088C433.985 93.361 433.156 90.6175 433.156 87.7783H444.305C444.433 89.9157 445.023 91.6224 446.076 92.8984C447.16 94.1426 448.5 95.0518 450.095 95.626C451.722 96.1683 453.397 96.4395 455.12 96.4395C457.193 96.4395 458.932 96.1683 460.335 95.626C461.739 95.0518 462.808 94.2861 463.541 93.3291C464.275 92.3402 464.642 91.2236 464.642 89.9795ZM503.957 104.957C500.129 104.957 496.667 104.335 493.573 103.091C490.511 101.815 487.895 100.044 485.725 97.7793C483.588 95.5143 481.945 92.8506 480.797 89.7881C479.648 86.7256 479.074 83.4238 479.074 79.8828V77.9688C479.074 73.9173 479.664 70.2487 480.845 66.9629C482.025 63.6771 483.668 60.8698 485.773 58.541C487.879 56.1803 490.367 54.3779 493.238 53.1338C496.109 51.8896 499.22 51.2676 502.569 51.2676C506.27 51.2676 509.508 51.8896 512.283 53.1338C515.058 54.3779 517.355 56.1325 519.174 58.3975C521.024 60.6305 522.396 63.2943 523.289 66.3887C524.214 69.4831 524.677 72.8965 524.677 76.6289V81.5576H484.673V73.2793H513.288V72.3701C513.224 70.2965 512.809 68.3506 512.044 66.5322C511.31 64.7139 510.178 63.2464 508.646 62.1299C507.115 61.0133 505.073 60.4551 502.521 60.4551C500.607 60.4551 498.901 60.8698 497.401 61.6992C495.934 62.4967 494.706 63.6611 493.717 65.1924C492.728 66.7236 491.962 68.5739 491.42 70.7432C490.909 72.8805 490.654 75.2891 490.654 77.9688V79.8828C490.654 82.1478 490.957 84.2533 491.563 86.1992C492.201 88.1133 493.126 89.7881 494.339 91.2236C495.551 92.6592 497.018 93.7917 498.741 94.6211C500.464 95.4186 502.426 95.8174 504.627 95.8174C507.402 95.8174 509.874 95.2591 512.044 94.1426C514.213 93.026 516.095 91.4469 517.69 89.4053L523.767 95.291C522.651 96.918 521.199 98.4811 519.413 99.9805C517.626 101.448 515.441 102.644 512.857 103.569C510.305 104.494 507.338 104.957 503.957 104.957Z" fill="#1A60FD"/>
</svg>
